<svg viewBox="0 0 50 11" fill="none" xmlns="http://www.w3.org/2000/svg">
<path d="M0.162598 9.7957C0.907676 6.61965 2.06669 3.52105 3.47406 0.577393H5.12979C6.53716 3.52105 7.69617 6.61965 8.44125 9.7957V9.87317H7.19945C7.03387 9.09852 6.78553 8.32387 6.53717 7.54922H1.98391C1.73555 8.32387 1.56997 9.09852 1.40439 9.87317H0.245389L0.162598 9.7957ZM2.23226 6.61965H6.20601C5.70929 4.91542 5.04701 3.2112 4.21914 1.58443C3.39128 3.2112 2.72898 4.91542 2.23226 6.61965Z" fill="#1B1E42"/>
<path d="M10.1798 1.58443H8.93799V0.577393H11.3388V9.87317H10.1798V1.58443Z" fill="#1B1E42"/>
<path d="M13.7396 1.58443H12.4978V0.577393H14.8986V9.87317H13.7396V1.58443Z" fill="#1B1E42"/>
<path d="M16.8855 6.38721C16.8855 4.37313 17.8789 2.97876 20.0314 2.97876C22.1838 2.97876 23.1773 4.37313 23.1773 6.38721C23.1773 8.63369 22.1838 9.95059 20.0314 9.95059C17.8789 9.95059 16.8855 8.63369 16.8855 6.38721ZM22.0183 6.38721C22.0183 4.91538 21.5215 3.9858 20.0314 3.9858C18.5412 3.9858 18.0445 4.91538 18.0445 6.38721C18.0445 7.85904 18.5412 9.02101 20.0314 9.02101C21.5215 9.02101 22.0183 7.93651 22.0183 6.38721Z" fill="#1B1E42"/>
<path d="M24.75 5.92242C24.6672 4.37313 25.9918 3.05622 27.6476 2.97876C27.7303 2.97876 27.7303 2.97876 27.8131 2.97876C28.5582 2.97876 29.2205 3.13369 29.8828 3.44355V5.22524H28.8894V4.14073C28.5582 3.9858 28.227 3.90834 27.8959 3.90834C26.9025 3.83087 25.9918 4.52806 25.909 5.5351C25.909 5.61256 25.909 5.76749 25.909 5.84496V7.00693C25.7435 7.93651 26.4885 8.78862 27.482 8.94355C27.6475 8.94355 27.7303 8.94355 27.8959 8.94355C28.5582 8.94355 29.2205 8.78862 29.7172 8.47876H29.8V9.40834C29.2205 9.7182 28.5582 9.79566 27.8131 9.87313C26.2402 10.0281 24.8328 8.94355 24.6672 7.47172C24.6672 7.31679 24.6672 7.08439 24.6672 6.92946L24.75 5.92242Z" fill="#1B1E42"/>
<path d="M31.373 6.6197C31.373 4.68308 33.0288 3.13379 35.0984 3.13379H35.1812H37.1681V9.95069H36.0091V8.71126L35.5124 9.17604C35.0157 9.7183 34.2706 10.0282 33.4427 10.0282C32.2837 10.0282 31.373 9.33097 31.373 7.70421V6.6197ZM36.0091 7.54928V4.06337H35.1812C33.7738 3.9859 32.5321 4.99294 32.5321 6.30985C32.5321 6.38731 32.5321 6.46477 32.5321 6.54224V7.62675C32.5321 8.71125 33.0288 9.02111 33.6911 9.02111C34.4361 8.86618 35.1812 8.47886 35.6779 7.93661L36.0091 7.54928Z" fill="#1B1E42"/>
<path d="M39.8172 4.06335H38.6582V3.13377H39.8172V1.58447H40.9762V3.13377H43.0459V4.06335H40.9762V7.39433C40.9762 8.63377 41.3902 8.94363 42.5492 8.94363H43.2943V9.87321H42.3836C40.8107 9.87321 39.9 9.17602 39.9 7.54926L39.8172 4.06335Z" fill="#1B1E42"/>
<path d="M44.3706 5.92242C44.2878 4.37313 45.4468 3.13369 47.1026 2.97876C47.1854 2.97876 47.3509 2.97876 47.4337 2.97876C48.9239 2.97876 49.9173 3.59848 49.9173 4.91538C49.9173 6.15482 49.0895 6.852 47.6821 6.852H45.5296V7.23932C45.4468 8.09144 46.1091 8.94355 47.1026 9.02101C47.2682 9.02101 47.3509 9.02101 47.5165 9.02101C48.1788 9.02101 48.8411 8.86608 49.5034 8.55622H49.5862V9.4858C48.9239 9.7182 48.2616 9.87313 47.5165 9.95059C45.778 9.95059 44.4534 9.17594 44.4534 7.23932L44.3706 5.92242ZM45.5296 5.99989H47.3509C48.5099 5.99989 48.8411 5.61256 48.8411 4.91538C48.8411 4.2182 48.3444 3.90834 47.5165 3.90834C46.2747 3.90834 45.5296 4.52806 45.5296 5.84496V5.99989Z" fill="#1B1E42"/>
</svg>
