<svg viewBox="0 0 68 11" fill="none" xmlns="http://www.w3.org/2000/svg">
<path d="M0 0.577393H3.6426C5.96063 0.577393 7.368 1.50697 7.368 3.98584C7.368 6.61965 5.62948 7.54922 3.39424 7.54922H2.31802V9.87317H0V0.577393ZM3.22867 5.69007C4.47047 5.69007 4.96719 5.30274 4.96719 3.98584C4.96719 2.66894 4.47047 2.43655 3.22867 2.43655H2.31802V5.76753L3.22867 5.69007Z" fill="#1B1E42"/>
<path d="M8.44434 7.39429V0.577393H14.9017V2.43655H10.7624V4.2957H14.4877V6.15486H10.7624V7.00697C10.7624 7.78162 10.9279 8.09148 11.8386 8.09148H15.15V9.95063H11.0107C9.2722 9.87317 8.44434 8.94359 8.44434 7.39429Z" fill="#1B1E42"/>
<path d="M18.8753 2.43655H16.1433V0.577393H23.8425V2.43655H21.1933V9.87317H18.8753V2.43655Z" fill="#1B1E42"/>
<path d="M25.0842 7.39429V0.577393H31.4588V2.43655H27.3195V4.2957H31.0449V6.15486H27.3195V7.00697C27.3195 7.78162 27.485 8.09148 28.3129 8.09148H31.6244V9.95063H27.485C25.9121 9.87317 25.0842 8.94359 25.0842 7.39429Z" fill="#1B1E42"/>
<path d="M32.7007 0.577393H36.3433C38.6613 0.577393 40.0687 1.27458 40.0687 3.67598C40.1515 4.76049 39.4892 5.845 38.4957 6.38725C39.572 7.31683 40.317 8.4788 40.731 9.7957V9.87317H38.2474C38.0818 9.33091 37.2539 7.62669 36.4261 7.1619H35.0187V9.95063H32.7007V0.577393ZM35.9294 5.30274C37.1712 5.30274 37.6679 4.91542 37.6679 3.75345C37.6679 2.59148 37.1712 2.35908 35.9294 2.35908H35.0187V5.30274H35.9294Z" fill="#1B1E42"/>
<path d="M41.3932 9.56338V7.78169H41.476C42.3866 8.01408 43.2145 8.16901 44.1251 8.16901H44.7047C45.5325 8.16901 46.1948 7.93662 46.1948 7.16197C46.1948 6.54225 45.6153 6.30986 45.0358 6.15493L43.4629 5.76761C42.1383 5.53521 41.2276 4.37324 41.3932 3.1338C41.3932 1.27465 43.0489 0.5 45.1186 0.5H45.5325C46.3604 0.5 47.1882 0.65493 48.0161 0.809859V2.59155H47.9333C47.1055 2.43662 46.3604 2.35916 45.5325 2.35916H45.0358C44.2907 2.35916 43.7112 2.51408 43.7112 3.21127C43.7112 3.75352 44.1252 3.98592 44.6219 4.06338L46.1948 4.4507C47.6022 4.6831 48.5956 5.84507 48.5128 7.16197C48.5128 9.25352 46.9399 10.0282 44.7047 10.0282H44.2079C43.2145 9.9507 42.3038 9.79577 41.3932 9.56338Z" fill="#1B1E42"/>
<path d="M49.4236 5.38028V4.99296C49.4236 2.12676 50.9137 0.5 53.9768 0.5C57.0399 0.5 58.5301 2.12676 58.5301 4.99296V5.38028C58.5301 8.24648 57.0399 10.0282 53.9768 10.0282C50.9137 10.0282 49.4236 8.24648 49.4236 5.38028ZM56.2121 5.38028V4.99296C56.2121 3.3662 55.7154 2.35916 54.0596 2.35916C52.4039 2.35916 51.9072 3.44366 51.9072 4.99296V5.38028C51.9072 7.00704 52.4039 8.16901 54.0596 8.16901C55.7154 8.16901 56.2121 7.00704 56.2121 5.38028Z" fill="#1B1E42"/>
<path d="M59.7717 0.577393H61.8414L65.5668 6.07739V0.577393H67.8848V9.87317H65.8151L62.0898 4.37317V9.87317H59.7717V0.577393Z" fill="#1B1E42"/>
</svg>
