<svg viewBox="0 0 22 20" fill="none" xmlns="http://www.w3.org/2000/svg">
<path d="M2.34228 15.7324C2.92179 15.655 3.58408 15.655 4.16358 15.8099C4.82587 15.9648 5.40538 16.2747 5.98488 16.5846C6.64717 16.9719 7.22668 17.3592 7.80619 17.7465C8.38569 18.1339 8.9652 18.5986 9.5447 19.0634L10.1242 19.4508H11.2004H11.6971C12.4422 19.3733 13.1873 19.2184 13.9324 19.0634C15.3398 18.6761 16.6643 17.9789 17.7406 17.1268C18.3201 16.662 18.8996 16.1198 19.3963 15.5C19.6447 15.1902 19.8102 14.9578 19.9758 14.6479C19.0651 14.9578 18.0717 15.2677 17.1611 15.4226C16.6643 15.5 16.1676 15.5775 15.5881 15.655C15.3398 15.655 15.0086 15.655 14.7603 15.655C13.8496 15.5775 12.9389 15.4226 12.0283 15.1127L11.4488 14.9578C10.7037 14.7254 9.95863 14.4155 9.29634 14.1831C8.38569 13.7958 7.47504 13.4085 6.64717 13.0986C5.81931 12.7888 4.99145 12.5564 4.16358 12.324C3.50129 12.1691 2.839 12.0916 2.09392 12.1691C1.51441 12.2465 0.934906 12.4789 0.60376 12.9437C0.769333 13.2536 0.852119 13.5634 1.01769 13.8733C1.43162 14.493 1.84556 15.1127 2.34228 15.7324Z" fill="#1B1E42"/>
<path d="M0.355469 6.5141C0.934974 5.4296 2.09398 4.73242 3.41857 4.65495C4.82594 4.73242 6.15052 5.11974 7.22674 5.89439C7.55789 6.12678 7.88904 6.35918 8.30297 6.59157C9.21362 7.21129 10.1243 7.83101 11.0349 8.37326C12.1939 9.14791 13.4357 9.84509 14.7603 10.3873C15.8365 10.9296 17.0783 11.2395 18.3201 11.3169C19.4791 11.3944 20.6381 11.0845 21.6316 10.4648C21.7144 10.0775 21.7144 9.6127 21.7144 9.22537C21.7144 6.90143 20.8865 4.65495 19.3136 2.87326C18.7341 3.26058 17.989 3.41551 17.2439 3.49298C16.4988 3.49298 15.7537 3.41551 15.0087 3.18312C14.1808 2.95072 13.4357 2.64087 12.6907 2.33101C11.8628 2.02115 11.1177 1.71129 10.2898 1.40143C9.46198 1.09157 8.63412 0.93664 7.80625 0.781711C6.8956 0.549316 6.06773 0.549316 5.15708 0.549316C2.83906 1.86622 1.10055 4.03523 0.355469 6.5141Z" fill="#1B1E42"/>
</svg>
